<svg xmlns="http://www.w3.org/2000/svg" viewBox="0 0 512 512">
  <rect width="512" height="512" fill="#00b25d"/>
  <path d="M256 96c-88.366 0-160 71.634-160 160 0 88.366 71.634 160 160 160 88.366 0 160-71.634 160-160 0-88.366-71.634-160-160-160zm0 288c-70.692 0-128-57.308-128-128 0-70.692 57.308-128 128-128 70.692 0 128 57.308 128 128 0 70.692-57.308 128-128 128z" fill="#ffffff"/>
  <path d="M256 160c-52.935 0-96 43.065-96 96s43.065 96 96 96 96-43.065 96-96-43.065-96-96-96zm0 160c-35.346 0-64-28.654-64-64 0-35.346 28.654-64 64-64 35.346 0 64 28.654 64 64 0 35.346-28.654 64-64 64z" fill="#00b25d"/>
</svg>
